<svg width="159" height="50" viewBox="0 0 159 50" fill="none" xmlns="http://www.w3.org/2000/svg">
<g clip-path="url(#clip0_35_72)">
<path d="M96.268 4.06714H61.9766C60.4053 4.06714 59.1287 5.36166 59.1287 6.9508V41.1797C59.1287 42.7689 60.4053 44.0634 61.9766 44.0634H96.268C97.8393 44.0634 99.1249 42.7689 99.1249 41.1797V6.9508C99.1249 5.36166 97.8393 4.06714 96.268 4.06714ZM71.2168 38.3496H65.2888V19.2621H71.2257V38.3496H71.2168ZM68.2528 16.6552C66.3512 16.6552 64.8156 15.1107 64.8156 13.2181C64.8156 11.3254 66.3512 9.78089 68.2528 9.78089C70.1455 9.78089 71.69 11.3254 71.69 13.2181C71.69 15.1197 70.1544 16.6552 68.2528 16.6552ZM93.4379 38.3496H87.5099V29.0648C87.5099 26.8507 87.4653 24.0028 84.4299 24.0028C81.3409 24.0028 80.8677 26.4133 80.8677 28.9041V38.3496H74.9397V19.2621H80.6266V21.869H80.707C81.5016 20.3692 83.4389 18.789 86.3225 18.789C92.322 18.789 93.4379 22.744 93.4379 27.8863V38.3496Z" fill="white"/>
</g>
<g clip-path="url(#clip1_35_72)">
<path d="M135.143 26.8112C135.143 28.5719 133.866 29.1284 132.297 29.1284H128.182V24.3023H132.379C134.076 24.3114 135.143 25.0139 135.143 26.8112ZM134.441 19.3029C134.441 17.6881 133.191 17.3049 131.804 17.3049H128.191V21.3921H132.087C133.465 21.3921 134.441 20.7899 134.441 19.3029ZM146.51 21.4194C144.841 21.4194 143.728 22.4595 143.618 24.129H149.293C149.138 22.4412 148.262 21.4194 146.51 21.4194ZM159 7.37906V39.4922C159 41.9098 157.038 43.8713 154.621 43.8713H122.508C120.09 43.8713 118.129 41.9098 118.129 39.4922V7.37906C118.129 4.96145 120.09 3 122.508 3H154.621C157.038 3 159 4.96145 159 7.37906ZM142.916 16.9583H150.014V15.234H142.916V16.9583ZM138.993 27.021C138.993 24.8223 137.953 22.9247 135.8 22.3135C137.369 21.5654 138.19 20.6987 138.19 18.938C138.19 15.453 135.59 14.6045 132.589 14.6045H124.332V32.1208H132.826C136.01 32.1025 138.993 30.579 138.993 27.021ZM152.796 25.6708C152.796 21.9212 150.598 18.792 146.629 18.792C142.761 18.792 140.143 21.6931 140.143 25.5066C140.143 29.4568 142.633 32.1664 146.629 32.1664C149.658 32.1664 151.619 30.807 152.568 27.8968H149.494C149.156 28.9824 147.797 29.5481 146.739 29.5481C144.695 29.5481 143.628 28.3529 143.628 26.3276H152.769C152.778 26.1178 152.796 25.8897 152.796 25.6708Z" fill="white"/>
</g>
<g clip-path="url(#clip2_35_72)">
<path d="M33.4899 3.8197C36.6124 3.8197 39.1511 6.35842 39.1511 9.48095V37.7872C39.1511 40.9097 36.6124 43.4485 33.4899 43.4485H5.18362C2.06109 43.4485 -0.477623 40.9097 -0.477623 37.7872V9.48095C-0.477623 6.35842 2.06109 3.8197 5.18362 3.8197H33.4899ZM19.8675 25.0229L33.4722 16.2391C33.313 14.8238 32.1188 13.7269 30.6592 13.7269H8.01425C6.55471 13.7269 5.36054 14.8238 5.20132 16.2391L18.806 25.0229C18.9652 25.129 19.151 25.1821 19.3368 25.1821C19.5225 25.1821 19.7083 25.129 19.8675 25.0229ZM17.2669 27.4023L5.18362 19.6004V30.7106C5.18362 32.2763 6.44856 33.5413 8.01425 33.5413H30.6592C32.2249 33.5413 33.4899 32.2763 33.4899 30.7106V19.6004L21.4066 27.4023C20.7874 27.8004 20.0709 28.0127 19.3368 28.0127C18.6026 28.0127 17.8861 27.8004 17.2669 27.4023Z" fill="white"/>
</g>
<defs>
<clipPath id="clip0_35_72">
<rect width="39.9962" height="45.71" fill="white" transform="translate(59.1287 1)"/>
</clipPath>
<clipPath id="clip1_35_72">
<rect width="40.8713" height="46.71" fill="white" transform="translate(118.129 3)"/>
</clipPath>
<clipPath id="clip2_35_72">
<rect width="39.6287" height="45.29" fill="white" transform="matrix(-1 0 0 1 39.6287 0)"/>
</clipPath>
</defs>
</svg>
