<svg width="160" height="50" viewBox="0 0 160 50" fill="none" xmlns="http://www.w3.org/2000/svg">
<g clip-path="url(#clip0_35_71)">
<path d="M97.1391 4.06714H62.8477C61.2764 4.06714 59.9998 5.36166 59.9998 6.9508V41.1797C59.9998 42.7689 61.2764 44.0634 62.8477 44.0634H97.1391C98.7104 44.0634 99.996 42.7689 99.996 41.1797V6.9508C99.996 5.36166 98.7104 4.06714 97.1391 4.06714ZM72.0879 38.3496H66.1599V19.2621H72.0968V38.3496H72.0879ZM69.1239 16.6552C67.2223 16.6552 65.6867 15.1107 65.6867 13.2181C65.6867 11.3254 67.2223 9.78089 69.1239 9.78089C71.0166 9.78089 72.5611 11.3254 72.5611 13.2181C72.5611 15.1197 71.0255 16.6552 69.1239 16.6552ZM94.309 38.3496H88.381V29.0648C88.381 26.8507 88.3364 24.0028 85.301 24.0028C82.212 24.0028 81.7388 26.4133 81.7388 28.9041V38.3496H75.8108V19.2621H81.4977V21.869H81.5781C82.3727 20.3692 84.31 18.789 87.1936 18.789C93.1931 18.789 94.309 22.744 94.309 27.8863V38.3496Z" fill="white"/>
</g>
<g clip-path="url(#clip1_35_71)">
<path d="M136.014 26.8112C136.014 28.5719 134.737 29.1284 133.168 29.1284H129.053V24.3023H133.25C134.947 24.3114 136.014 25.0139 136.014 26.8112ZM135.312 19.3029C135.312 17.6881 134.062 17.3049 132.675 17.3049H129.062V21.3921H132.958C134.336 21.3921 135.312 20.7899 135.312 19.3029ZM147.382 21.4194C145.712 21.4194 144.599 22.4595 144.49 24.129H150.164C150.009 22.4412 149.133 21.4194 147.382 21.4194ZM159.871 7.37906V39.4922C159.871 41.9098 157.91 43.8713 155.492 43.8713H123.379C120.961 43.8713 119 41.9098 119 39.4922V7.37906C119 4.96145 120.961 3 123.379 3H155.492C157.91 3 159.871 4.96145 159.871 7.37906ZM143.787 16.9583H150.885V15.234H143.787V16.9583ZM139.864 27.021C139.864 24.8223 138.824 22.9247 136.671 22.3135C138.24 21.5654 139.061 20.6987 139.061 18.938C139.061 15.453 136.461 14.6045 133.46 14.6045H125.203V32.1208H133.697C136.881 32.1025 139.864 30.579 139.864 27.021ZM153.667 25.6708C153.667 21.9212 151.469 18.792 147.5 18.792C143.632 18.792 141.014 21.6931 141.014 25.5066C141.014 29.4568 143.504 32.1664 147.5 32.1664C150.529 32.1664 152.49 30.807 153.439 27.8968H150.365C150.027 28.9824 148.668 29.5481 147.61 29.5481C145.566 29.5481 144.499 28.3529 144.499 26.3276H153.64C153.649 26.1178 153.667 25.8897 153.667 25.6708Z" fill="white"/>
</g>
<g clip-path="url(#clip2_35_71)">
<path d="M34.361 3.81982C37.4835 3.81982 40.0222 6.35854 40.0222 9.48107V37.7873C40.0222 40.9099 37.4835 43.4486 34.361 43.4486H6.05472C2.93219 43.4486 0.393471 40.9099 0.393471 37.7873V9.48107C0.393471 6.35854 2.93219 3.81982 6.05472 3.81982H34.361ZM20.7386 25.023L34.3433 16.2392C34.1841 14.8239 32.9899 13.727 31.5303 13.727H8.88534C7.4258 13.727 6.23163 14.8239 6.07241 16.2392L19.6771 25.023C19.8363 25.1291 20.0221 25.1822 20.2078 25.1822C20.3936 25.1822 20.5794 25.1291 20.7386 25.023ZM18.1379 27.4025L6.05472 19.6006V30.7108C6.05472 32.2765 7.31965 33.5414 8.88534 33.5414H31.5303C33.096 33.5414 34.361 32.2765 34.361 30.7108V19.6006L22.2777 27.4025C21.6585 27.8005 20.942 28.0128 20.2078 28.0128C19.4736 28.0128 18.7571 27.8005 18.1379 27.4025Z" fill="white"/>
</g>
<defs>
<clipPath id="clip0_35_71">
<rect width="39.9962" height="45.71" fill="white" transform="translate(59.9998 1)"/>
</clipPath>
<clipPath id="clip1_35_71">
<rect width="40.8713" height="46.71" fill="white" transform="translate(119 3)"/>
</clipPath>
<clipPath id="clip2_35_71">
<rect width="39.6287" height="45.29" fill="white" transform="matrix(-1 0 0 1 40.4998 0)"/>
</clipPath>
</defs>
</svg>
