<svg width="41" height="46" viewBox="0 0 41 46" fill="none" xmlns="http://www.w3.org/2000/svg">
  <g clip-path="url(#clip0_35_69)">
    <path
      d="M34.361 3.81982C37.4835 3.81982 40.0222 6.35854 40.0222 9.48107V37.7873C40.0222 40.9099 37.4835 43.4486 34.361 43.4486H6.05472C2.93219 43.4486 0.393471 40.9099 0.393471 37.7873V9.48107C0.393471 6.35854 2.93219 3.81982 6.05472 3.81982H34.361ZM20.7386 25.023L34.3433 16.2392C34.1841 14.8239 32.9899 13.727 31.5303 13.727H8.88534C7.4258 13.727 6.23163 14.8239 6.07241 16.2392L19.6771 25.023C19.8363 25.1291 20.0221 25.1822 20.2078 25.1822C20.3936 25.1822 20.5794 25.1291 20.7386 25.023ZM18.1379 27.4025L6.05472 19.6006V30.7108C6.05472 32.2765 7.31965 33.5414 8.88534 33.5414H31.5303C33.096 33.5414 34.361 32.2765 34.361 30.7108V19.6006L22.2777 27.4025C21.6585 27.8005 20.942 28.0128 20.2078 28.0128C19.4736 28.0128 18.7571 27.8005 18.1379 27.4025Z"
      fill="white" />
  </g>
  <defs>
    <clipPath id="clip0_35_69">
      <rect width="39.6287" height="45.29" fill="white" transform="matrix(-1 0 0 1 40.4998 0)" />
    </clipPath>
  </defs>
</svg>