<svg width="41" height="46" viewBox="0 0 41 46" fill="none" xmlns="http://www.w3.org/2000/svg">
  <g clip-path="url(#clip0_35_51)">
    <path
      d="M37.1391 3.06714H2.8477C1.27642 3.06714 -0.000244141 4.36166 -0.000244141 5.9508V40.1797C-0.000244141 41.7689 1.27642 43.0634 2.8477 43.0634H37.1391C38.7104 43.0634 39.996 41.7689 39.996 40.1797V5.9508C39.996 4.36166 38.7104 3.06714 37.1391 3.06714ZM12.0879 37.3496H6.15989V18.2621H12.0968V37.3496H12.0879ZM9.1239 15.6552C7.22229 15.6552 5.68672 14.1107 5.68672 12.2181C5.68672 10.3254 7.22229 8.78089 9.1239 8.78089C11.0166 8.78089 12.5611 10.3254 12.5611 12.2181C12.5611 14.1197 11.0255 15.6552 9.1239 15.6552ZM34.309 37.3496H28.381V28.0648C28.381 25.8507 28.3364 23.0028 25.301 23.0028C22.212 23.0028 21.7388 25.4133 21.7388 27.9041V37.3496H15.8108V18.2621H21.4977V20.869H21.5781C22.3727 19.3692 24.31 17.789 27.1936 17.789C33.1931 17.789 34.309 21.744 34.309 26.8863V37.3496Z"
      fill="white" />
  </g>
  <defs>
    <clipPath id="clip0_35_51">
      <rect width="39.9962" height="45.71" fill="white" transform="translate(-0.000244141)" />
    </clipPath>
  </defs>
</svg>