<svg xmlns="http://www.w3.org/2000/svg" width="342.047" height="246.616" viewBox="0 0 342.047 246.616">
  <path id="Caminho_3" data-name="Caminho 3" d="M422.123,371.692a122.778,122.778,0,0,1,64.826,18.267,123.373,123.373,0,0,1-64.53,228.349,126.153,126.153,0,0,1-35.16-4.879,140.14,140.14,0,0,0,20.148-12.9,128.283,128.283,0,0,0,22.864-22.379c.317-.4.633-.809.945-1.215q27.045-2.8,47.074-23.216,23.575-24.376,23.606-58.659a84.977,84.977,0,0,0-6.228-31.97,77.458,77.458,0,0,0-17.556-26.631q-19.676-19.6-45.859-23.1a103.955,103.955,0,0,0-9.266-10.513,152.06,152.06,0,0,0-12.069-10.738l-.005,0a138.581,138.581,0,0,0-23.478-15.493,130.724,130.724,0,0,1,34.688-4.93ZM362.461,603.213q-2.629-1.428-5.224-2.995a125.646,125.646,0,0,1-18.871-13.99q3.457-.462,6.837-1.211a73.009,73.009,0,0,0,16.741-5.873l.037-.039a89.519,89.519,0,0,0,15.8-10.3q1.717-1.377,3.434-2.852a73.881,73.881,0,0,0,25.393,9.968,117.7,117.7,0,0,1-43.186,26.974l-.956.322ZM321.6,567.58a125.936,125.936,0,0,1-10.031-16.354A123.7,123.7,0,0,1,297.984,493.7q0-33.008,18.09-62.929,2.662-4.372,5.638-8.454,1.735-.1,3.495-.1a66.367,66.367,0,0,1,29.936,6.906,73.382,73.382,0,0,1,11.183,6.9l-.608.621a83.989,83.989,0,0,0-23.607,57.591q0,35.142,23.786,59.312l.172.175-.21.169a70.823,70.823,0,0,1-12.377,8.109l-.006-.016a53.793,53.793,0,0,1-12.4,4.375,65.4,65.4,0,0,1-14.151,1.435q-2.7,0-5.33-.208Zm16.629-163.614a125.338,125.338,0,0,1,24.359-17.109q1.227.408,2.446.838a114.358,114.358,0,0,1,33.855,19.295l.036.035q4.389,3.528,8.044,6.951a73.346,73.346,0,0,0-25.3,9.756,94.9,94.9,0,0,0-18.052-11.779,84.521,84.521,0,0,0-25.387-7.987Z" transform="translate(-203.976 -371.692)" fill="#ae8686"/>
  <path id="Caminho_4" data-name="Caminho 4" d="M386.534,547.489h50.89q-11.478,26.782-35.825,45.435-33.182,25.35-73.843,25.384-47.685,0-83.271-33.037a124.083,124.083,0,0,1-27.994-37.364,120.623,120.623,0,0,1-12.515-53.856q0-51.066,37.721-87.6,35.941-34.787,84.993-34.757,43.949,0,78.231,27.876a115.1,115.1,0,0,1,19.988,19.93c4.863,6.4,9.488,14.709,13.938,24.791H388.966q-27.311-31.671-63.759-31.671-21.174,0-40.629,13.049a79.321,79.321,0,0,0-28.647,33.569,83.8,83.8,0,0,0-7.828,35.349q0,34.252,24.674,59.134,23.4,23.665,54.151,23.664a68.042,68.042,0,0,0,30.782-6.82c9.132-4.57,18.741-12.22,28.824-23.074Z" transform="translate(-203.976 -371.692)" fill="#ae8686"/>
</svg>
